<?xml version="1.0" standalone="no"?>
<!DOCTYPE svg PUBLIC "-//W3C//DTD SVG 20010904//EN"
 "http://www.w3.org/TR/2001/REC-SVG-20010904/DTD/svg10.dtd">
<svg version="1.0" xmlns="http://www.w3.org/2000/svg"
 width="400.000000pt" height="400.000000pt" viewBox="0 0 400.000000 400.000000"
 preserveAspectRatio="xMidYMid meet">
<metadata>
Created by potrace 1.11, written by Peter Selinger 2001-2013
</metadata>
<g transform="translate(0.000000,400.000000) scale(0.100000,-0.100000)"
fill="#000000" stroke="none">
<path d="M2045 3680 c-3 -6 5 -14 18 -19 23 -9 43 -38 33 -49 -3 -2 -28 3 -55
12 -53 17 -121 21 -121 7 0 -4 29 -16 65 -26 43 -11 65 -22 65 -32 0 -11 -6
-14 -22 -9 -36 11 -207 29 -267 29 -33 0 -56 -4 -59 -11 -2 -7 -12 -12 -23
-12 -10 0 -19 -4 -19 -10 0 -5 -15 -10 -32 -10 -18 -1 -49 -7 -69 -14 -19 -7
-72 -13 -116 -13 -70 -1 -90 -5 -147 -33 -63 -32 -103 -71 -91 -90 3 -6 0 -10
-7 -10 -8 0 -22 -6 -32 -13 -15 -11 -16 -18 -8 -34 13 -24 -9 -53 -58 -78 -22
-11 -30 -23 -30 -41 0 -14 -8 -38 -18 -52 -11 -16 -19 -47 -20 -77 -1 -29 -8
-54 -15 -60 -8 -5 -22 -23 -31 -40 -9 -16 -28 -45 -41 -64 -29 -40 -31 -51 -9
-51 11 0 14 -5 9 -17 -4 -10 -11 -30 -15 -44 -4 -14 -14 -36 -21 -48 -11 -19
-11 -25 -1 -28 6 -3 12 -11 12 -19 0 -8 6 -14 14 -14 11 0 13 -10 9 -39 -4
-29 0 -49 15 -73 27 -46 56 -187 57 -283 0 -61 8 -101 30 -165 16 -47 35 -92
42 -101 19 -23 42 -100 63 -212 11 -57 29 -116 43 -140 33 -56 44 -107 23
-107 -8 0 -17 4 -20 9 -3 5 -14 7 -24 4 -14 -3 -17 -12 -14 -39 6 -52 -7 -124
-23 -124 -18 0 -47 -29 -40 -41 4 -5 21 -9 39 -9 37 0 53 23 62 95 4 25 14 46
25 53 20 13 17 19 54 -125 17 -67 69 -188 84 -197 5 -4 12 -20 16 -36 4 -16
12 -33 19 -37 7 -5 21 -22 32 -39 34 -55 99 -149 106 -155 5 -3 12 -26 17 -51
4 -26 15 -54 24 -62 9 -9 13 -24 10 -37 -4 -16 -2 -20 8 -17 8 3 20 -2 28 -9
7 -8 19 -12 26 -9 8 3 15 -7 18 -24 4 -18 17 -34 37 -44 16 -9 42 -22 58 -30
15 -8 43 -17 62 -20 19 -3 36 -10 38 -15 2 -6 10 -11 18 -11 8 0 23 -6 34 -12
16 -10 23 -10 35 3 18 17 10 49 -11 49 -8 0 -14 4 -14 9 0 10 83 7 100 -4 5
-3 10 1 10 9 0 9 5 16 10 16 19 0 10 -39 -11 -51 -16 -8 -18 -14 -9 -22 9 -9
16 -6 32 13 l21 25 -5 -28 c-4 -22 -2 -27 9 -23 8 3 19 6 24 6 6 0 7 4 4 10
-3 5 0 7 8 4 8 -3 42 4 76 16 48 16 74 33 116 76 30 31 55 60 55 65 0 5 7 6
15 3 19 -8 19 5 0 30 -21 27 -19 36 8 36 12 0 31 7 41 15 11 8 27 13 36 10 21
-7 60 30 60 55 0 18 -3 19 -20 8 -10 -7 -23 -8 -27 -4 -4 5 -3 11 3 13 37 13
44 29 48 104 3 69 7 82 41 133 37 56 54 74 56 59 3 -44 7 -75 11 -78 2 -2 47
-1 101 2 98 6 98 6 92 30 -3 13 -20 52 -37 86 -17 34 -38 78 -48 97 -10 19
-26 53 -36 75 -14 30 -20 35 -22 21 -2 -10 1 -23 7 -29 14 -14 15 -67 1 -67
-5 0 -10 11 -10 24 0 13 -7 27 -16 30 -18 7 -34 0 -34 -16 0 -6 -7 -16 -17
-23 -9 -7 -16 -25 -15 -44 1 -31 -21 -44 -31 -18 -3 7 -6 4 -6 -6 -1 -11 -6
-15 -12 -11 -6 3 -9 18 -6 32 4 21 -2 42 -21 72 -6 9 -22 -25 -22 -47 0 -14
-6 -23 -15 -23 -8 0 -15 -8 -15 -17 0 -10 -10 -34 -22 -53 -23 -37 -25 -41
-27 -65 0 -8 -6 -15 -12 -15 -7 0 -8 11 -4 30 4 18 2 36 -5 45 -12 14 -8 73 8
115 16 44 -16 190 -43 190 -6 0 -18 9 -28 21 -13 14 -24 18 -40 13 -12 -4 -55
-7 -95 -8 -63 0 -74 3 -88 22 -15 21 -64 31 -64 13 0 -5 -19 -28 -42 -51 -41
-41 -44 -42 -92 -35 -29 3 -62 16 -82 31 -35 27 -55 26 -48 -4 7 -29 -70 -60
-136 -55 -47 4 -59 2 -81 -19 -34 -29 -59 -79 -59 -115 0 -33 30 -125 45 -135
5 -4 10 -39 10 -77 0 -65 -1 -68 -16 -52 -22 24 -39 56 -39 76 0 9 -10 29 -21
45 -12 15 -22 40 -22 54 1 17 -5 25 -16 24 -28 -3 -81 26 -81 43 0 10 -6 24
-13 31 -44 45 -80 135 -109 271 -26 127 -30 164 -32 352 -1 116 -8 237 -14
270 -16 80 -33 283 -32 370 2 77 17 120 71 200 32 46 38 51 79 54 28 2 52 10
63 22 10 11 22 17 28 14 5 -4 9 -2 9 3 0 6 16 10 35 9 22 -1 35 -6 35 -14 0
-7 7 -13 16 -13 13 0 14 3 5 13 -12 15 3 37 26 37 20 0 16 -20 -4 -21 -10 -1
5 -5 32 -9 28 -4 52 -3 53 2 6 13 17 10 40 -13 19 -17 23 -18 28 -5 8 21 24
20 39 -1 11 -15 14 -15 35 0 12 8 28 13 35 11 7 -3 15 2 18 10 5 12 14 14 38
9 21 -4 34 -2 40 8 8 12 10 12 19 -1 7 -12 15 -13 39 -4 20 8 33 8 40 1 7 -7
15 -6 25 2 8 7 27 11 43 9 21 -2 27 -8 25 -22 -3 -15 0 -17 15 -11 55 23 111
35 147 31 214 -22 248 -42 306 -176 25 -57 25 -55 21 -296 -2 -93 15 -217 50
-378 31 -142 39 -166 54 -166 11 0 13 14 10 65 -2 37 0 65 6 65 14 0 11 42 -6
70 -34 58 -65 126 -65 143 0 36 76 -49 95 -108 19 -56 45 -74 45 -32 0 12 8
31 17 42 15 20 15 20 10 -2 -3 -16 -1 -23 9 -23 8 0 14 6 14 14 0 8 9 33 19
57 14 30 17 47 10 56 -6 6 -12 36 -13 65 -5 86 -6 89 -15 84 -5 -4 -12 0 -14
6 -3 7 -6 -5 -7 -27 -1 -22 -5 -49 -9 -60 -13 -32 -21 107 -9 151 5 21 8 54 5
74 -3 22 1 40 9 48 17 15 18 41 4 77 -7 18 -7 39 0 65 7 25 7 47 0 64 -13 35
-32 34 -25 -1 l5 -28 -10 25 c-6 14 -24 37 -41 52 -29 27 -36 52 -20 77 6 9
10 10 16 2 4 -7 14 3 26 26 l20 38 -27 23 c-19 16 -24 29 -20 45 3 13 -2 29
-13 42 -11 11 -21 29 -23 40 -2 11 -10 21 -18 21 -8 1 -23 2 -34 3 -12 1 -16
6 -12 17 3 8 2 12 -4 9 -5 -3 -20 -3 -33 0 -19 5 -23 11 -19 31 4 22 1 24 -32
24 -33 0 -37 3 -43 31 -4 20 -10 28 -20 25 -8 -3 -16 2 -19 12 -9 26 -27 65
-37 80 -7 8 -13 9 -22 2 -9 -7 -20 -4 -38 10 -14 11 -31 19 -37 18 -7 -2 -18
14 -25 34 -12 32 -47 78 -60 78 -3 0 -5 -9 -5 -20 0 -32 -25 -23 -43 15 -16
34 -88 95 -113 95 -7 0 -16 -5 -19 -10z m688 -812 c5 -3 11 -39 13 -80 1 -40
4 -80 6 -88 1 -8 -1 -16 -7 -17 -5 0 -15 -14 -22 -30 -11 -26 -12 -23 -13 39
0 37 5 70 10 73 6 4 9 14 6 23 -7 29 -16 118 -9 102 3 -8 10 -18 16 -22z m-29
-232 c19 -30 26 -107 9 -113 -14 -5 -37 45 -46 100 -7 44 12 51 37 13z m100
-379 c6 -24 5 -26 -7 -16 -8 8 -12 22 -9 32 6 22 7 20 16 -16z m-722 -800 c72
-3 77 -22 8 -30 -62 -7 -79 -16 -56 -29 11 -6 22 -6 30 1 6 5 21 8 33 5 11 -3
24 -1 27 5 11 18 26 13 26 -9 0 -12 -10 -24 -24 -29 -13 -5 -26 -17 -29 -25
-4 -9 -13 -16 -21 -16 -7 0 -27 -7 -42 -15 -66 -34 -224 -4 -237 46 -3 11 -14
19 -26 19 -12 0 -21 6 -21 15 0 18 4 18 28 6 9 -6 32 -16 50 -25 l33 -15 -7
35 c-5 29 -3 34 12 35 11 0 42 9 69 18 28 10 59 16 70 14 11 -2 46 -5 77 -6z
m222 -69 c9 -37 7 -58 -7 -58 -15 0 -41 -65 -32 -79 3 -6 -5 -15 -17 -22 -13
-7 -34 -23 -47 -36 -14 -13 -30 -22 -37 -19 -8 3 -16 1 -19 -5 -4 -5 -10 -7
-15 -4 -5 3 -32 -4 -60 -16 -40 -17 -60 -20 -98 -14 -64 9 -144 6 -159 -7 -8
-6 -16 -8 -20 -5 -3 4 -13 1 -21 -6 -12 -10 -16 -9 -20 3 -3 8 -19 28 -36 45
-32 31 -96 130 -96 148 0 5 7 15 17 22 13 10 27 6 77 -19 34 -17 63 -34 66
-37 10 -11 39 -18 44 -10 3 5 25 5 48 0 53 -10 132 -11 142 -2 7 7 22 11 71
17 17 2 39 7 50 12 18 7 79 59 113 97 23 24 48 21 56 -5z m-124 -254 c0 -7 -4
-16 -10 -19 -5 -3 -10 -4 -10 -1 0 2 -2 11 -5 19 -4 8 0 14 10 14 8 0 15 -6
15 -13z m-304 -45 c4 -7 22 -9 45 -6 28 4 42 0 54 -13 13 -15 23 -16 48 -9 17
5 33 13 36 18 11 17 61 0 61 -20 0 -11 -5 -19 -11 -19 -5 0 -7 -5 -4 -11 4 -6
-2 -13 -13 -16 -13 -3 -18 -11 -15 -19 3 -8 -1 -14 -9 -14 -8 0 -20 -10 -25
-22 -11 -23 -11 -23 -23 7 -12 29 -12 30 -21 8 -11 -30 -32 -29 -49 2 -9 18
-22 25 -42 25 -21 0 -32 7 -40 25 -6 14 -16 25 -23 25 -21 0 -65 25 -65 38 0
15 86 17 96 1z m317 -379 c-3 -10 -11 -24 -18 -30 -11 -10 -12 -6 -2 19 13 34
28 43 20 11z m-289 -7 c8 -21 -10 -41 -24 -27 -11 11 -3 44 10 44 4 0 11 -8
14 -17z m176 -3 c0 -5 -4 -10 -10 -10 -5 0 -10 5 -10 10 0 6 5 10 10 10 6 0
10 -4 10 -10z"/>
<path d="M1915 1380 c22 -5 44 -4 50 1 5 5 -11 9 -40 8 l-50 -1 40 -8z"/>
<path d="M2026 1209 c-12 -12 -15 -19 -7 -19 16 0 44 27 34 33 -5 2 -17 -4
-27 -14z"/>
<path d="M1905 1210 c-3 -5 1 -10 10 -10 9 0 13 5 10 10 -3 6 -8 10 -10 10 -2
0 -7 -4 -10 -10z"/>
<path d="M2921 2525 c-1 -5 -4 -35 -6 -65 -4 -49 -4 -52 6 -21 5 18 8 47 6 65
-2 17 -5 27 -6 21z"/>
<path d="M2284 2437 c-4 -12 -11 -13 -34 -4 -23 9 -33 8 -47 -5 -10 -8 -56
-23 -101 -32 -46 -9 -92 -21 -102 -26 -22 -12 -29 -45 -18 -88 8 -31 11 -32
43 -26 l34 6 -33 -36 c-41 -43 -53 -86 -35 -128 l12 -30 18 23 c10 13 19 21
20 17 15 -74 55 -110 94 -84 22 14 24 14 28 -2 3 -9 5 0 6 21 1 23 -3 36 -9
32 -5 -3 -10 -1 -10 4 0 6 20 11 46 11 54 0 122 17 145 37 12 10 23 11 44 3
36 -14 49 -1 36 34 -14 35 -89 108 -103 100 -6 -4 -8 -2 -4 4 6 11 98 8 117
-4 13 -8 38 25 39 51 0 31 -84 115 -115 115 -15 0 -35 5 -46 10 -15 8 -21 7
-25 -3z m-124 -261 c0 -8 3 -21 6 -30 7 -19 -6 -21 -30 -3 -11 8 -15 19 -10
30 7 20 34 23 34 3z"/>
<path d="M3038 2393 c-25 -39 -57 -132 -65 -193 -5 -31 -3 -33 10 -20 8 8 22
39 32 68 9 29 27 65 39 80 48 57 60 102 27 102 -10 0 -29 -16 -43 -37z"/>
<path d="M1410 2370 c-64 -10 -81 -19 -124 -67 -33 -37 -37 -46 -31 -75 14
-65 20 -69 83 -62 31 4 69 12 85 19 33 16 35 8 4 -20 -31 -27 -67 -88 -67
-113 0 -29 27 -35 154 -37 86 -1 110 -4 117 -17 7 -12 14 -13 42 -5 28 9 38
20 53 59 10 26 22 48 26 48 5 0 7 14 6 30 -2 33 -39 73 -75 85 -37 11 -26 21
22 21 24 0 47 3 50 6 4 3 1 25 -5 47 -17 63 -54 82 -155 79 -44 -1 -93 1 -110
4 -16 3 -50 2 -75 -2z m255 -260 c10 -16 -16 -43 -28 -31 -11 11 -2 41 12 41
5 0 13 -5 16 -10z m-161 -36 c4 -9 4 -19 2 -22 -10 -9 -36 8 -36 23 0 20 26
19 34 -1z"/>
<path d="M2901 2314 c0 -11 3 -14 6 -6 3 7 2 16 -1 19 -3 4 -6 -2 -5 -13z"/>
<path d="M3296 2301 c-3 -5 1 -11 9 -15 9 -3 15 0 15 9 0 16 -16 20 -24 6z"/>
<path d="M3186 2265 c-9 -26 -7 -32 5 -12 6 10 9 21 6 23 -2 3 -7 -2 -11 -11z"/>
<path d="M3408 2273 c7 -3 16 -2 19 1 4 3 -2 6 -13 5 -11 0 -14 -3 -6 -6z"/>
<path d="M3106 2244 c-10 -25 1 -29 14 -5 6 12 7 21 1 21 -5 0 -12 -7 -15 -16z"/>
<path d="M3456 2226 c3 -9 11 -16 16 -16 13 0 5 23 -10 28 -7 2 -10 -2 -6 -12z"/>
<path d="M2827 2204 c-19 -25 -19 -57 -2 -141 6 -28 5 -31 -14 -26 -15 4 -22
-1 -26 -19 -4 -13 -5 -28 -4 -34 1 -5 -1 -21 -5 -36 -11 -39 0 -51 30 -32 15
10 24 26 24 41 0 21 3 23 14 14 20 -17 23 -1 22 126 -1 122 -10 146 -39 107z"/>
<path d="M3026 2203 c8 -34 10 -37 22 -29 7 4 6 15 -1 31 -16 33 -29 32 -21
-2z"/>
<path d="M3086 2203 c-15 -16 -47 -100 -53 -141 -4 -31 -9 -40 -18 -32 -13 11
-35 -5 -35 -26 0 -6 -6 -17 -14 -23 -12 -10 -13 -5 -9 31 3 24 12 62 18 86 15
48 1 69 -16 25 -19 -47 -38 -78 -48 -76 -12 3 -27 -92 -32 -199 -2 -47 -5 -58
-19 -58 -19 0 -70 -60 -70 -81 0 -10 -3 -10 -12 -1 -25 25 -29 9 -26 -88 2
-55 6 -100 10 -100 3 0 13 -19 21 -42 8 -24 19 -42 25 -41 6 2 9 -3 6 -11 -8
-21 15 -96 29 -96 7 0 18 5 25 12 7 7 12 8 12 3 0 -16 -58 -45 -63 -32 -2 7
-8 8 -13 4 -5 -5 1 -16 13 -27 12 -9 25 -29 29 -44 3 -14 18 -35 33 -45 25
-18 30 -18 86 -4 42 11 60 12 63 4 2 -6 14 -11 27 -11 13 0 25 -6 28 -12 3
-10 9 -10 24 -1 21 12 43 1 43 -22 0 -6 9 -21 20 -33 12 -12 16 -23 10 -27
-32 -20 12 -51 52 -36 18 6 18 8 4 20 -29 24 -20 44 19 39 28 -3 35 -1 35 13
0 25 11 49 21 49 5 0 8 -5 6 -12 -1 -6 6 -14 16 -16 9 -2 17 2 17 10 0 7 4 19
8 26 12 19 102 -16 102 -40 0 -9 8 -21 17 -26 15 -9 15 -11 1 -26 -15 -15 -14
-56 1 -56 14 0 31 25 31 46 0 29 20 42 34 23 15 -19 57 -46 81 -51 17 -3 16
-6 -10 -20 l-30 -17 40 6 c68 11 79 9 90 -14 5 -13 15 -23 21 -23 12 0 59 79
51 86 -3 3 -28 -1 -56 -10 -28 -8 -51 -11 -51 -6 0 5 12 13 28 16 72 18 127
64 90 76 -6 2 -8 10 -4 17 5 7 15 10 23 7 24 -10 34 4 19 26 -13 18 -12 23 5
41 19 20 27 67 11 67 -4 0 -18 20 -30 45 -12 25 -40 65 -62 89 -51 55 -52 71
-5 62 19 -3 51 -9 70 -12 21 -4 35 -3 35 4 0 13 -54 53 -107 81 -24 12 -43 26
-43 31 0 5 -12 16 -27 24 l-27 14 36 15 c31 13 132 24 163 17 18 -3 130 1 134
6 10 9 -66 64 -97 70 -18 3 -67 2 -110 -3 -74 -10 -78 -9 -99 14 -12 12 -29
23 -38 23 -8 0 -15 3 -15 6 0 16 43 73 80 107 39 37 50 57 31 57 -6 0 -18 -13
-27 -29 -16 -26 -114 -81 -114 -64 0 3 11 20 24 37 26 35 59 96 54 101 -2 2
-28 -12 -57 -31 -30 -18 -56 -32 -58 -30 -2 1 -8 29 -14 62 -12 69 -48 182
-60 190 -13 8 -11 -9 7 -52 10 -23 16 -64 15 -101 0 -34 4 -65 9 -68 6 -3 10
-17 10 -30 0 -16 -15 -34 -50 -60 -27 -20 -50 -41 -50 -46 0 -20 -31 -7 -40
16 -5 14 -12 25 -15 25 -2 0 -14 -17 -25 -37 -42 -78 -76 -133 -88 -145 -9 -9
-12 -4 -12 27 0 36 -1 37 -18 22 -10 -10 -23 -17 -29 -17 -6 0 -29 -21 -53
-46 -23 -25 -44 -43 -47 -40 -9 8 32 155 58 208 5 10 9 24 9 33 0 8 6 34 14
57 8 24 16 63 18 88 2 25 9 54 15 65 18 34 21 115 3 115 -5 0 -21 -20 -36 -45
-14 -25 -28 -45 -30 -45 -3 0 -2 16 2 35 8 43 1 44 -36 4 l-28 -32 5 42 c6 40
3 48 -11 34z m41 -144 c-8 -19 -17 -51 -21 -71 -4 -21 -11 -38 -16 -38 -14 0
2 82 24 115 26 40 32 38 13 -6z m-97 -118 c0 -6 -4 -13 -10 -16 -5 -3 -10 1
-10 9 0 9 5 16 10 16 6 0 10 -4 10 -9z m15 -81 c-20 -22 -49 -27 -42 -7 2 6
11 12 20 12 8 0 19 4 23 8 17 16 16 6 -1 -13z m372 -88 c-10 -10 -17 -23 -17
-28 -1 -5 -19 -27 -42 -49 -47 -46 -41 -33 21 48 24 32 46 55 49 52 3 -3 -2
-13 -11 -23z m-500 -44 c-3 -8 -6 -5 -6 6 -1 11 2 17 5 13 3 -3 4 -12 1 -19z
m528 2 c3 -5 -3 -10 -14 -10 -12 0 -21 5 -21 10 0 6 6 10 14 10 8 0 18 -4 21
-10z m-204 -73 c-10 -9 -11 -8 -5 6 3 10 9 15 12 12 3 -3 0 -11 -7 -18z m249
19 c0 -2 -9 -6 -20 -9 -11 -3 -20 -1 -20 4 0 5 9 9 20 9 11 0 20 -2 20 -4z
m-173 -56 c0 -32 -4 -35 -27 -20 -12 7 -12 12 4 29 11 12 20 21 21 21 1 0 2
-13 2 -30z m-443 -15 c-26 -19 -31 -9 -8 16 11 12 20 16 22 9 2 -6 -4 -17 -14
-25z m396 1 c0 -3 -4 -8 -10 -11 -5 -3 -10 -1 -10 4 0 6 5 11 10 11 6 0 10 -2
10 -4z m80 -16 c0 -5 -4 -10 -10 -10 -5 0 -10 5 -10 10 0 6 5 10 10 10 6 0 10
-4 10 -10z m-276 -15 c-4 -8 -8 -15 -10 -15 -2 0 -4 7 -4 15 0 8 4 15 10 15 5
0 7 -7 4 -15z m544 -34 c8 -4 19 -17 25 -28 41 -70 48 -86 44 -96 -2 -7 -13 7
-25 29 -12 23 -33 55 -47 73 -26 30 -24 40 3 22z m-762 -22 c3 -6 0 -18 -9
-26 -13 -13 -14 -12 -14 11 0 27 11 34 23 15z m474 -67 c0 -5 -11 -14 -25 -20
-20 -9 -25 -9 -25 3 0 7 10 16 23 18 12 2 23 5 25 6 1 0 2 -3 2 -7z m-319 -35
c-10 -9 -11 -8 -5 6 3 10 9 15 12 12 3 -3 0 -11 -7 -18z m224 -17 c-3 -5 -14
-10 -23 -10 -15 0 -15 2 -2 10 20 13 33 13 25 0z m435 -344 c0 -3 -4 -8 -10
-11 -5 -3 -10 -1 -10 4 0 6 5 11 10 11 6 0 10 -2 10 -4z"/>
<path d="M2715 2035 c8 -32 8 -93 -1 -107 -3 -4 -13 -4 -23 1 -15 9 -17 4 -15
-41 4 -87 34 -91 54 -7 14 59 9 154 -10 172 -10 10 -11 6 -5 -18z"/>
<path d="M2800 1870 c0 -5 5 -10 10 -10 6 0 10 5 10 10 0 6 -4 10 -10 10 -5 0
-10 -4 -10 -10z"/>
<path d="M2717 1803 c-4 -3 -7 -20 -6 -37 l1 -31 8 35 c9 36 8 45 -3 33z"/>
<path d="M2698 1617 c-3 -19 -2 -25 4 -19 6 6 8 18 6 28 -3 14 -5 12 -10 -9z"/>
<path d="M2691 1514 c0 -11 3 -14 6 -6 3 7 2 16 -1 19 -3 4 -6 -2 -5 -13z"/>
<path d="M2720 1507 c0 -16 7 -43 15 -60 8 -18 21 -50 29 -72 l15 -40 -6 45
c-3 25 -10 56 -15 68 -4 13 -6 27 -4 31 3 3 -4 18 -15 31 l-19 25 0 -28z"/>
<path d="M1026 1351 c-22 -25 -13 -59 17 -65 74 -15 85 -15 102 4 19 21 13 40
-12 40 -9 0 -13 3 -10 7 8 8 -39 33 -63 33 -9 0 -25 -9 -34 -19z"/>
<path d="M1181 1306 c-9 -10 -9 -16 -1 -21 17 -10 37 12 24 25 -8 8 -15 6 -23
-4z"/>
<path d="M2838 1120 c-16 -5 -28 -6 -28 -3 0 3 -6 1 -12 -5 -7 -5 -34 -13 -60
-17 -71 -11 -65 -18 49 -65 53 -22 100 -23 96 -2 -2 6 2 12 7 12 16 0 12 36
-5 50 -9 7 -14 19 -11 27 6 15 3 15 -36 3z"/>
<path d="M2633 1030 c3 -14 18 -54 33 -90 25 -56 29 -78 29 -160 0 -98 -16
-156 -76 -275 -47 -95 -190 -239 -278 -281 -20 -10 -52 -30 -72 -46 -30 -24
-48 -30 -102 -34 -47 -3 -70 0 -79 10 -12 13 -52 10 -44 -3 3 -4 -22 -6 -55
-6 -40 0 -63 5 -68 14 -5 7 -22 13 -37 13 -16 0 -43 11 -61 24 -18 13 -51 33
-75 45 -100 47 -141 74 -191 123 -48 48 -54 61 -85 162 -17 60 -32 122 -32
137 0 16 -4 26 -10 22 -6 -4 -10 10 -10 34 0 49 19 141 29 141 4 0 9 8 10 18
5 27 2 145 -4 150 -2 3 -91 -51 -197 -118 -106 -68 -224 -139 -263 -158 -38
-19 -79 -42 -90 -52 -28 -25 -184 -132 -217 -149 -16 -8 -28 -18 -28 -22 0
-12 149 -129 245 -191 477 -310 1057 -405 1611 -263 323 83 626 247 856 464
l68 64 -32 24 c-18 14 -43 29 -56 34 -12 5 -26 19 -31 31 -18 47 -89 97 -251
178 -161 80 -360 172 -360 166 0 -6 184 -143 228 -171 24 -14 42 -28 40 -31
-9 -8 -155 72 -197 108 -24 21 -47 36 -51 33 -4 -2 3 -26 16 -52 23 -47 33
-109 15 -99 -5 3 -12 23 -16 43 -9 50 -50 125 -88 160 l-30 28 6 -25z m456
-248 c79 -40 95 -56 63 -66 -20 -7 -111 41 -112 57 0 5 -10 17 -22 28 -35 28
-11 22 71 -19z m186 -103 c11 -17 -1 -21 -15 -4 -8 9 -8 15 -2 15 6 0 14 -5
17 -11z"/>
<path d="M3183 1013 c-13 -2 -23 -10 -23 -16 -1 -7 -2 -39 -4 -72 -4 -70 -1
-74 89 -120 42 -22 67 -30 71 -23 9 14 -32 45 -70 54 -25 5 -27 8 -13 16 12 6
17 22 17 48 0 30 4 40 16 40 11 0 14 5 10 16 -3 9 -6 19 -6 24 0 5 -7 16 -16
24 -15 16 -28 17 -71 9z"/>
<path d="M3470 992 c0 -37 -18 -58 -57 -65 -51 -10 -103 -35 -103 -50 0 -12
11 -11 65 5 87 27 95 23 95 -52 l0 -61 -52 6 c-37 5 -50 3 -43 -4 6 -6 25 -11
43 -13 39 -3 49 -13 54 -52 5 -43 28 -46 28 -4 0 19 5 39 12 46 9 9 9 12 -2
12 -13 0 -15 22 -13 130 1 107 -1 130 -13 130 -9 0 -14 -10 -14 -28z"/>
<path d="M1604 749 c-3 -6 -1 -16 5 -22 8 -8 11 -5 11 11 0 24 -5 28 -16 11z"/>
<path d="M730 700 c0 -5 7 -10 16 -10 8 0 12 5 9 10 -3 6 -10 10 -16 10 -5 0
-9 -4 -9 -10z"/>
<path d="M598 659 c-21 -11 -38 -24 -38 -29 0 -13 17 -13 25 0 3 6 15 10 26
10 17 0 38 25 28 34 -2 2 -21 -5 -41 -15z"/>
<path d="M3450 645 c7 -8 16 -12 21 -9 13 8 1 24 -18 24 -13 0 -13 -3 -3 -15z"/>
</g>
</svg>
